<svg version="1.1" xmlns="http://www.w3.org/2000/svg" xmlns:xlink="http://www.w3.org/1999/xlink" width="236.61726" height="229.90121" viewBox="0,0,236.61726,229.90121"><g transform="translate(-121.69137,-65.67439)"><g data-paper-data="{&quot;isPaintingLayer&quot;:true}" fill-rule="nonzero" stroke="#000000" stroke-linejoin="miter" stroke-miterlimit="10" stroke-dasharray="" stroke-dashoffset="0" style="mix-blend-mode: normal"><path d="M208.88247,291.00866c-2.7915,-10.84188 9.5123,-20.59656 17.75828,-20.25096c8.24598,0.3456 1.74239,14.43822 1.73379,21.0679" data-paper-data="{&quot;index&quot;:null}" fill="none" stroke-width="7.5" stroke-linecap="round"/><path d="M202.14631,276.83242c4.05944,-10.43358 19.74339,-11.1759 26.23829,-6.08357" data-paper-data="{&quot;index&quot;:null}" fill="none" stroke-width="7.5" stroke-linecap="round"/><path d="M226.30547,202.39351c0,0 -10.30836,24.41665 -9.69936,40.75452c0.60899,16.33787 25.26708,24.99099 12.37626,31.06067c-12.89082,6.06968 -22.94697,-11.4742 -24.92684,-25.15119c-1.97987,-13.67699 14.64427,-45.88113 14.64427,-45.88113z" data-paper-data="{&quot;index&quot;:null}" fill="#c1c1c1" stroke-width="5" stroke-linecap="round"/><path d="M248.88129,291.62696c-0.00861,-6.62968 -6.51219,-20.7223 1.73379,-21.0679c8.24597,-0.3456 20.54978,9.40908 17.75828,20.25095" data-paper-data="{&quot;index&quot;:null}" fill="none" stroke-width="7.5" stroke-linecap="round"/><path d="M248.87122,270.55021c6.49489,-5.09233 22.17886,-4.35001 26.23829,6.08357" data-paper-data="{&quot;index&quot;:null}" fill="none" stroke-width="7.5" stroke-linecap="round"/><path d="M258.55604,202.97774c0,0 16.62413,32.20413 14.64425,45.88112c-1.97987,13.67699 -12.03602,31.22087 -24.92684,25.15119c-12.89082,-6.06968 11.76727,-14.72281 12.37626,-31.06067c0.60899,-16.33786 -9.69937,-40.75452 -9.69937,-40.75452z" fill="#c1c1c1" stroke-width="5" stroke-linecap="round"/><path d="M221.5215,175.80885c0,0 -22.3003,-14.32242 -38.50258,-16.50938c-16.20228,-2.18696 -28.93492,20.6336 -32.71663,6.89632c-3.78171,-13.73728 15.22047,-20.65328 29.03473,-20.27102c13.81426,0.38226 42.71051,22.25633 42.71051,22.25633z" data-paper-data="{&quot;index&quot;:null}" fill="#c1c1c1" stroke-width="5" stroke-linecap="round"/><path d="M126.20612,176.46324c1.59378,-11.08146 16.70317,-15.35273 24.18173,-11.86178c7.47856,3.49096 -3.94556,13.99753 -6.50371,20.11379" data-paper-data="{&quot;index&quot;:null}" fill="none" stroke-width="7.5" stroke-linecap="round"/><path d="M125.44137,160.78661c7.76052,-8.06925 22.52324,-2.72138 26.55955,4.47749" data-paper-data="{&quot;index&quot;:null}" fill="none" stroke-width="7.5" stroke-linecap="round"/><path d="M257.95247,171.23688c0,0 28.89625,-21.87407 42.71051,-22.25633c13.81426,-0.38226 32.81644,6.53374 29.03473,20.27102c-3.78172,13.73728 -16.51435,-9.08328 -32.71663,-6.89632c-16.20228,2.18696 -38.50258,16.50938 -38.50258,16.50938z" fill="#c1c1c1" stroke-width="5" stroke-linecap="round"/><path d="M203.33932,214.36208c0,0 9.3087,-8.08443 10.49123,-13.95159c2.53464,-12.57569 4.06121,-58.25087 4.06121,-58.25087h44.81448c0,0 -0.05104,45.23445 1.62205,57.87045c0.81853,6.18195 7.84581,13.6354 7.84581,13.6354z" fill="#686868" stroke-width="5" stroke-linecap="butt"/><path d="M283.57838,112.14718c0,24.28551 -19.66379,48.22279 -43.9203,48.22279c-24.25651,0 -43.9203,-23.93729 -43.9203,-48.22279c0,-24.2855 19.66379,-43.97279 43.9203,-43.97279c24.25651,0 43.9203,19.68729 43.9203,43.97279z" fill="#c1c1c1" stroke-width="5" stroke-linecap="butt"/><path d="M259.74141,118.15942v-14" fill="none" stroke-width="2.5" stroke-linecap="round"/><path d="M266.92492,111.53202h-14" fill="none" stroke-width="2.5" stroke-linecap="round"/><path d="M219.00773,117.95739v-14" data-paper-data="{&quot;index&quot;:null}" fill="none" stroke-width="2.5" stroke-linecap="round"/><path d="M211.82423,111.32998h14" data-paper-data="{&quot;index&quot;:null}" fill="none" stroke-width="2.5" stroke-linecap="round"/><path d="M272.54688,132.04401c-3.88347,10.68183 -23.74384,20.02778 -32.80267,19.64266c-9.05884,-0.38512 -35.10335,-12.07359 -32.07038,-20.41603c3.03297,-8.34244 22.98687,3.87714 32.18598,4.26823c9.1991,0.39109 36.57054,-14.17668 32.68707,-3.49485z" fill="#000000" stroke-width="2.5" stroke-linecap="round"/><path d="M336.11587,187.77104c-2.55815,-6.11625 -13.98228,-16.62283 -6.50371,-20.11379c7.47855,-3.49095 22.58794,0.78032 24.18172,11.86177" data-paper-data="{&quot;index&quot;:null}" fill="none" stroke-width="7.5" stroke-linecap="round"/><path d="M327.99908,168.31988c4.03631,-7.19887 18.79903,-12.54674 26.55955,-4.47749" data-paper-data="{&quot;index&quot;:null}" fill="none" stroke-width="7.5" stroke-linecap="round"/></g></g></svg>