<svg version="1.1" xmlns="http://www.w3.org/2000/svg" xmlns:xlink="http://www.w3.org/1999/xlink" width="602.16725" height="406.90691" viewBox="0,0,602.16725,406.90691"><g transform="translate(94.89994,25.55428)"><g data-paper-data="{&quot;isPaintingLayer&quot;:true}" fill-rule="nonzero" stroke="none" stroke-linecap="butt" stroke-linejoin="miter" stroke-miterlimit="10" stroke-dasharray="" stroke-dashoffset="0" style="mix-blend-mode: normal"><path d="M-94.89994,173.90004c0,-1.38071 1.11929,-2.5 2.5,-2.5c1.38071,0 2.5,1.11929 2.5,2.5c0,1.38071 -1.11929,2.5 -2.5,2.5c-1.38071,0 -2.5,-1.11929 -2.5,-2.5z" fill="#ffffff" stroke-width="0.5"/><path d="M-27.26723,381.35263v-406.9069h534.53454v406.90691z" fill="#000000" stroke-width="0"/><path d="M30.45234,85.86801c0,-3.58985 2.91015,-6.5 6.5,-6.5c3.58985,0 6.5,2.91015 6.5,6.5c0,3.58985 -2.91015,6.5 -6.5,6.5c-3.58985,0 -6.5,-2.91015 -6.5,-6.5z" fill="#000000" stroke-width="0.5"/><path d="M304.14297,254.4003c0.40506,-0.29313 0.69819,0.11194 0.69819,0.11194l0.55138,0.77181c0.92153,2.81767 -1.33486,5.08744 -3.51828,6.49528c-6.0091,2.66142 -14.10422,1.39028 -20.75604,1.39028c-6.92533,0 -13.71497,-1.65563 -20.59272,-1.65563c-6.93267,0 -13.86534,0 -20.79801,0c-2.85865,0 -6.27483,0.49461 -9.06796,-0.17886c-3.17095,-0.76456 -5.10603,-3.22022 -7.6266,-4.872c0,0 -0.41603,-0.27735 -0.13868,-0.69338c0.27735,-0.41603 0.69338,-0.13868 0.69338,-0.13868c2.3954,1.6201 4.27162,4.0002 7.3063,4.73191c2.70817,0.65298 6.06089,0.151 8.83357,0.151c6.93267,0 13.86534,0 20.79801,0c6.88029,0 13.66731,1.65563 20.59272,1.65563c6.41887,0 14.50135,1.32373 20.27959,-1.26948c1.64186,-1.06375 3.84233,-3.00709 3.10502,-5.15955l-0.4718,-0.64208c0,0 -0.29313,-0.40506 0.11194,-0.69819z" fill="#000000" stroke-width="0.5"/><path d="M236.43668,269.26213c-0.44721,-0.22361 -0.22361,-0.67082 -0.22361,-0.67082l0.13118,-0.23573c0.37953,-1.49291 1.26331,-2.61003 1.46492,-4.02977c-0.95295,0.3296 -3.1472,1.36102 -3.42713,1.53719c0,0 -0.42875,0.25725 -0.68599,-0.1715c-0.25725,-0.42875 0.1715,-0.68599 0.1715,-0.68599c0.6755,-0.39055 3.71647,-1.93841 4.56337,-1.75695c0.09514,0.01143 0.16871,0.04314 0.22561,0.08533c0.85757,0.44463 0.76941,1.89749 1.7225,1.76939h0.33807c0,0 0.5,0 0.5,0.5c0,0.5 -0.5,0.5 -0.5,0.5h-0.33807c-1.34014,-0.08693 -1.15864,-0.84857 -1.61625,-1.44978c-0.26851,1.38625 -1.08229,2.45079 -1.44838,3.94461l-0.20689,0.44041c0,0 -0.22361,0.44721 -0.67082,0.22361z" fill="#000000" stroke-width="0.5"/><path d="M224.39884,268.92323c-0.27735,0.41603 -0.69338,0.13868 -0.69338,0.13868l-0.43203,-0.29683c-0.20961,-0.04974 -0.40611,-0.10138 -0.59259,-0.15576c-0.14916,0.45628 -0.38501,0.89272 -0.71094,1.23529l-0.46801,0.26269c0,0 -0.44721,0.22361 -0.67082,-0.22361c-0.22361,-0.44721 0.22361,-0.67082 0.22361,-0.67082l0.20812,-0.07537c0.23902,-0.22175 0.39743,-0.53372 0.48598,-0.85538c-0.64813,-0.27126 -1.22378,-0.61246 -1.93108,-1.07957c0,0 -0.41603,-0.27735 -0.13868,-0.69338c0.27735,-0.41603 0.69338,-0.13868 0.69338,-0.13868c1.17041,0.78653 1.90439,1.11625 3.30559,1.48007l0.58217,0.3793c0,0 0.41603,0.27735 0.13868,0.69338z" fill="#000000" stroke-width="0.5"/><path d="M226.61499,268.30089c-0.11006,0.1149 -0.27325,0.30305 -0.4471,0.5225c0.04967,-0.04353 0.10133,-0.08845 0.15542,-0.13465c0.105,-0.08967 0.20006,-0.23364 0.29168,-0.38785zM224.45511,269.55027c0.54123,-1.58737 2.85223,-3.32951 3.59996,-2.61019c1.176,1.1313 -0.6906,2.47547 -2.29609,3.14165l0.0451,0.02353l0.67148,0.50361c0.12409,0.09098 0.20466,0.23783 0.20466,0.40349c0,0.27614 -0.22386,0.5 -0.5,0.5h-0.67613v-0.0208l-0.06109,0.01705c-0.64362,-0.22806 -0.96873,-0.5927 -1.06819,-1.02102c-0.12806,0.01459 -0.23694,0.01538 -0.32105,0.00086c0,0 -0.49029,-0.09806 -0.39223,-0.58835c0.09806,-0.49029 0.58835,-0.39223 0.58835,-0.39223c0.07196,0.01731 0.14022,0.0314 0.20523,0.0424z" fill="#000000" stroke-width="0.5"/><path d="M229.39896,270.33625c0,-0.5 0.5,-0.5 0.5,-0.5l0.32715,0.02566c0.58649,0.20237 1.02217,0.28211 1.44166,0.8739c1.97001,2.77918 -3.15694,4.21198 -3.93348,2.29405c-0.12301,-0.30382 0.70727,-1.90972 0.87229,-2.24109c0,0 0.22361,-0.44721 0.67082,-0.22361c0.44721,0.22361 0.22361,0.67082 0.22361,0.67082c-0.07078,0.14094 -0.81489,1.3602 -0.81804,1.47764c-0.01386,0.51805 4.72313,-0.79256 1.22691,-1.90304l-0.01092,0.02566c0,0 -0.5,0 -0.5,-0.5z" fill="#000000" stroke-width="0.5"/><path d="M239.31025,274.50218c-0.1804,-0.0902 -0.25165,-0.21679 -0.27244,-0.33573c-2.03077,0.89865 -5.2867,-0.25163 -5.89445,-1.98177c0,0 -0.15811,-0.47434 0.31623,-0.63246c0.47434,-0.15811 0.63246,0.31623 0.63246,0.31623c0.48634,1.56811 4.08299,2.22826 5.24399,0.83259c0.07771,-0.09342 0.13921,-0.18266 0.18668,-0.26763c-0.57222,-0.04915 -1.22145,-0.13031 -1.40867,-0.45255c-0.39209,-0.67486 -0.02086,-1.75761 0.77925,-1.95744c1.00698,-0.25151 1.47238,0.5776 1.56112,1.50316h0.43172c0.27614,0 0.5,0.22386 0.5,0.5c0,0.13807 -0.05596,0.26307 -0.14645,0.35355l-0.5071,0.5071l-0.00235,-0.00235c-0.20253,0.34547 -0.39967,0.69352 -0.58013,1.05563l-0.16903,0.33807c0,0 -0.22361,0.44721 -0.67082,0.22361zM239.52458,271.57589c-0.25975,-0.35672 -0.79618,-0.43169 -0.59931,-0.17976c0.13893,0.17778 0.35686,0.19953 0.59931,0.17976z" fill="#000000" stroke-width="0.5"/><path d="M233.44157,279.29499c0,0.5 -0.5,0.5 -0.5,0.5h-0.67613c-0.9173,-0.00466 -2.52544,-0.26223 -3.12986,-1.0823c-1.30433,-1.76971 0.92024,-3.85748 2.57499,-3.45247c0,0 0.48507,0.12127 0.3638,0.60634c-0.12127,0.48507 -0.60634,0.3638 -0.60634,0.3638c-0.85498,-0.21911 -2.36721,1.07515 -1.4818,1.95659c0.47671,0.47458 1.64191,0.61191 2.2792,0.60803h0.67613c0,0 0.5,0 0.5,0.5z" fill="#000000" stroke-width="0.5"/><path d="M242.40724,276.40504c0.96851,1.19735 -0.45874,3.16041 -1.44418,1.79258c-0.01387,-0.01925 -0.02623,-0.03981 -0.03715,-0.06161l-0.05931,0.11863l0.01242,0.36422c0,0 0,0.5 -0.5,0.5c-0.33783,0 -0.4474,-0.22826 -0.48294,-0.37633c-0.46255,0.22299 -0.97162,0.41811 -1.24873,0.32991c-0.19691,-0.06267 -0.33066,-0.17625 -0.41348,-0.31596c-0.25929,0.3646 -0.53761,0.7142 -0.88195,1.06109c0,0 -0.35355,0.35355 -0.70711,0c-0.19762,-0.19762 -0.17432,-0.39525 -0.11532,-0.53112l-0.45638,-0.00502c-0.24824,-0.07994 -1.43407,-0.45342 -1.49724,-0.5239c-0.92187,-1.02848 0.36217,-3.72307 1.93771,-2.96708c1.45704,0.69913 0.74075,1.85205 -0.24761,2.5034l0.39433,-0.00596c0,0 0.34677,0 0.46274,0.28879c0.3397,-0.42459 0.61251,-0.86586 0.93829,-1.34718l0.14939,-0.44816c0.06283,-0.20431 0.25307,-0.35282 0.47799,-0.35282c0.27614,0 0.5,0.22386 0.5,0.5v0.67613c0.04792,0.18504 -0.28046,0.66539 -0.12059,0.56061c0.31091,-0.20377 0.61558,-0.42275 0.95061,-0.58346l0.27805,-0.41708c0.08903,-0.13785 0.24402,-0.2291 0.42033,-0.2291c0.10884,0 0.20955,0.03477 0.29164,0.09382c0.06013,-0.18544 0.13442,-0.37723 0.21538,-0.56651c-0.015,-0.11742 0.01481,-0.25624 0.15363,-0.39506c0.01527,-0.01527 0.03055,-0.02923 0.04579,-0.04195c0.21794,-0.45167 0.44076,-0.84367 0.54977,-1.0358c0,0 0.24807,-0.43412 0.68219,-0.18605c0.43412,0.24807 0.18605,0.68219 0.18605,0.68219c-0.17507,0.30396 -0.30833,0.61153 -0.4343,0.91877zM235.53397,277.58097c0.49874,-0.2769 1.02538,-0.75524 0.59692,-0.86663c-0.68474,-0.17801 -0.8066,0.36176 -0.59692,0.86663z" fill="#000000" stroke-width="0.5"/><path d="M248.14745,276.59047c0,0.5 -0.5,0.5 -0.5,0.5l-0.56591,-0.00483c-0.22754,1.21443 -1.79122,0.61082 -3.61215,0.15894c0,0 -0.48507,-0.12127 -0.3638,-0.60634c0.12127,-0.48507 0.60634,-0.3638 0.60634,-0.3638c1.48894,0.37472 2.38212,1.23145 2.4163,0.4879c-0.42752,-0.2418 -0.55251,-0.50675 -0.47797,-0.92471l-0.1782,-0.04455l0.1665,-0.66599c0.05053,-0.22266 0.24966,-0.38888 0.48761,-0.38888c0.17631,0 0.3313,0.09125 0.42033,0.2291l0.33376,0.50065l-0.024,0.016l0.06523,0.05907c0.05187,0.19972 0.09254,0.38322 0.12262,0.5516c0.00243,0.00077 0.00487,0.00154 0.00732,0.0023l0.59604,-0.00646c0,0 0.5,0 0.5,0.5z" fill="#000000" stroke-width="0.5"/><text transform="translate(127.18633,40.85336) scale(0.66456,0.66456)" font-size="40" xml:space="preserve" fill="#ffffff" fill-rule="nonzero" stroke="none" stroke-width="1" stroke-linecap="butt" stroke-linejoin="miter" stroke-miterlimit="10" stroke-dasharray="" stroke-dashoffset="0" font-family="Sans Serif" font-weight="normal" text-anchor="start" style="mix-blend-mode: normal"><tspan x="0" dy="0">туториал на гейм</tspan></text><text transform="translate(16.21526,73.56703) scale(0.47525,0.47525)" font-size="40" xml:space="preserve" fill="#ffffff" fill-rule="nonzero" stroke="none" stroke-width="1" stroke-linecap="butt" stroke-linejoin="miter" stroke-miterlimit="10" stroke-dasharray="" stroke-dashoffset="0" font-family="Sans Serif" font-weight="normal" text-anchor="start" style="mix-blend-mode: normal"><tspan x="0" dy="0">татьянка-просто закрой дверь</tspan><tspan x="0" dy="46.150000000000006px"> </tspan><tspan x="0" dy="46.150000000000006px">уборщица (без текстуры) - тыкай пробел</tspan><tspan x="0" dy="46.150000000000006px">и отгоняй ее фонариком</tspan><tspan x="0" dy="46.150000000000006px"> </tspan><tspan x="0" dy="46.150000000000006px">людмилка-не слишком тыкай на фонарик</tspan><tspan x="0" dy="46.150000000000006px">когда ее видишь (но для профилактики можно)</tspan></text><text transform="translate(11.57228,305.37015) scale(0.6912,0.6912)" font-size="40" xml:space="preserve" fill="#ffffff" fill-rule="nonzero" stroke="none" stroke-width="1" stroke-linecap="butt" stroke-linejoin="miter" stroke-miterlimit="10" stroke-dasharray="" stroke-dashoffset="0" font-family="Sans Serif" font-weight="normal" text-anchor="start" style="mix-blend-mode: normal"><tspan x="0" dy="0">нажми пробел для продолжения</tspan></text></g></g></svg>