<svg version="1.1" xmlns="http://www.w3.org/2000/svg" xmlns:xlink="http://www.w3.org/1999/xlink" width="99.75419" height="164.40657" viewBox="0,0,99.75419,164.40657"><g transform="translate(-190.12291,-97.79671)"><g data-paper-data="{&quot;isPaintingLayer&quot;:true}" fill-rule="nonzero" stroke="#000000" stroke-linejoin="miter" stroke-miterlimit="10" stroke-dasharray="" stroke-dashoffset="0" style="mix-blend-mode: normal"><path d="M232.56093,227.3297c0,0 -8.92901,-0.55906 -13.06212,-12.36463c-4.13311,-11.80557 -2.45463,-31.95646 -2.45463,-31.95646" fill="none" stroke-width="5" stroke-linecap="round"/><path d="M235.20961,224.73265c3.20281,-0.02284 3.19809,17.84431 -0.00471,17.86715c-3.20281,0.02285 -5.83508,-4.99111 -5.8689,-9.73192c-0.01964,-2.75441 4.53162,-8.12567 5.8736,-8.13524z" data-paper-data="{&quot;index&quot;:null}" fill="#000000" stroke-width="5" stroke-linecap="butt"/><path d="M260.68189,185.30929c0,0 6.50007,34.95361 2.36696,46.75918c-4.13311,11.80557 -13.06212,12.36463 -13.06212,12.36463" data-paper-data="{&quot;index&quot;:null}" fill="none" stroke-width="5" stroke-linecap="round"/><path d="M247.33805,241.83605c1.34198,0.00957 5.89325,5.38083 5.8736,8.13524c-0.03382,4.74081 -2.66609,9.75477 -5.8689,9.73192c-3.2028,-0.02285 -3.20751,-17.89 -0.00471,-17.86716z" data-paper-data="{&quot;index&quot;:null}" fill="#000000" stroke-width="5" stroke-linecap="butt"/><path d="M287.37708,149.04138c0,26.92094 -21.21145,48.74467 -47.37709,48.74467c-26.16565,0 -47.37709,-21.82373 -47.37709,-48.74467c0,-26.92094 21.21144,-48.74467 47.37709,-48.74467c2.59612,0 -0.70167,34.663 -0.70167,34.663c0,0 13.15602,-33.06935 15.54035,-32.24934c1.06177,0.36516 -3.80741,48.30177 -3.80741,48.30177c0,0 9.20041,-45.68502 10.31812,-45.07234c15.02653,8.2369 26.02771,24.46791 26.02771,43.10158z" fill="#ffe200" stroke-width="5" stroke-linecap="butt"/><path d="M205.52771,147.82823c0,-2.13738 1.73269,-3.87007 3.87007,-3.87007c2.13738,0 3.87007,1.73269 3.87007,3.87007c0,2.13738 -1.73269,3.87007 -3.87007,3.87007c-2.13738,0 -3.87007,-1.73269 -3.87007,-3.87007z" fill="#ffffff" stroke-width="2.5" stroke-linecap="butt"/><path d="M266.73215,150.25453c0,-2.13738 1.73269,-3.87007 3.87007,-3.87007c2.13738,0 3.87007,1.73269 3.87007,3.87007c0,2.13738 -1.73269,3.87007 -3.87007,3.87007c-2.13738,0 -3.87007,-1.73269 -3.87007,-3.87007z" fill="#ffffff" stroke-width="2.5" stroke-linecap="butt"/></g></g></svg>